<?xml version="1.0" encoding="utf-8"?>
<!-- Generator: Adobe Illustrator 23.0.1, SVG Export Plug-In . SVG Version: 6.00 Build 0)  -->
<svg version="1.1" id="Layer_1" xmlns="http://www.w3.org/2000/svg" xmlns:xlink="http://www.w3.org/1999/xlink" x="0px" y="0px"
	 viewBox="0 0 212.12 70" style="enable-background:new 0 0 212.12 70;" xml:space="preserve">
<style type="text/css">
	.st0{fill:#29BADD;}
	.st1{fill:#196C7F;}
</style>
<g>
	<path class="st0" d="M24.81,57.66c0,3.41-1.19,6.32-3.57,8.73C18.86,68.8,15.96,70,12.55,70c-3.41,0-6.36-1.21-8.83-3.62
		C1.24,63.97,0,61.05,0,57.64V38.52h8.3v19.31c0,1.1,0.4,2.04,1.21,2.85c0.8,0.81,1.79,1.21,2.94,1.21c1.09,0,2.04-0.4,2.85-1.21
		c0.8-0.8,1.21-1.75,1.21-2.84V0h8.3V57.66z"/>
	<path class="st0" d="M55.81,53.71v3.95c-0.06,3.47-1.27,6.4-3.62,8.77C49.83,68.81,46.95,70,43.54,70c-3.41,0-6.36-1.21-8.83-3.62
		c-2.48-2.41-3.72-5.33-3.72-8.74v-11.3h8.3v11.49c0,1.1,0.4,2.04,1.21,2.85c0.8,0.81,1.79,1.21,2.94,1.21
		c1.09,0,2.04-0.4,2.85-1.21c0.8-0.8,1.21-1.75,1.21-2.84v-3.28c0-3.66-0.06-5.82-0.19-6.46c-0.39-1.61-1.38-3.66-2.99-6.17
		c-0.9-1.35-2.5-3.26-4.78-5.74c-2.29-2.47-3.88-4.45-4.78-5.93c-1.54-2.51-2.58-4.76-3.09-6.75c-0.45-1.67-0.68-4.27-0.68-7.81
		v-3.37c0.06-3.4,1.29-6.31,3.68-8.72C37.07,1.21,39.97,0,43.4,0c3.42,0,6.35,1.21,8.77,3.62c2.42,2.41,3.64,5.33,3.64,8.74v11.3
		h-8.3V12.17c0-1.09-0.4-2.04-1.21-2.85c-0.81-0.8-1.75-1.21-2.85-1.21c-1.16,0-2.14,0.4-2.94,1.21c-0.81,0.8-1.21,1.75-1.21,2.84
		v2.7c0,3.02,0.1,4.85,0.29,5.49c0.39,1.67,1.38,3.73,2.99,6.17c0.84,1.35,2.41,3.26,4.73,5.74c2.32,2.47,3.93,4.45,4.83,5.93
		c1.48,2.38,2.49,4.6,3.04,6.65C55.72,46.9,55.93,49.85,55.81,53.71z"/>
	<path class="st1" d="M118.37,69.52h-8.3V12.16c0-1.09-0.39-2.04-1.16-2.84c-0.77-0.8-1.74-1.21-2.9-1.21c-1.16,0-2.12,0.4-2.9,1.21
		c-0.77,0.8-1.16,1.75-1.16,2.84v57.36h-8.3V12.16c0-1.09-0.43-2.04-1.29-2.84c-0.86-0.8-1.86-1.21-3.01-1.21
		c-1.08,0-2.02,0.4-2.82,1.21c-0.8,0.8-1.19,1.75-1.19,2.84v57.36h-8.3V12.34c0-3.41,1.19-6.32,3.57-8.73C83,1.21,85.9,0,89.31,0
		c1.61,0,3.27,0.44,4.97,1.32c1.7,0.88,2.82,1.95,3.33,3.21c0.51-1.26,1.61-2.33,3.28-3.21c1.67-0.88,3.35-1.32,5.02-1.32
		c3.41,0,6.34,1.21,8.79,3.62c2.45,2.41,3.67,5.32,3.67,8.73V69.52z"/>
	<path class="st1" d="M148.59,57.66c0,3.41-1.19,6.31-3.57,8.72c-2.38,2.41-5.28,3.61-8.69,3.61c-3.41,0-6.36-1.2-8.83-3.61
		c-2.48-2.41-3.72-5.32-3.72-8.72l0.1-31.33c0-3.4,1.21-6.31,3.62-8.72c2.41-2.41,5.33-3.61,8.74-3.61c3.41,0,6.32,1.21,8.74,3.61
		c2.41,2.41,3.62,5.32,3.62,8.72V57.66z M140.38,57.84V26.15c0-1.09-0.4-2.04-1.21-2.84c-0.81-0.8-1.75-1.2-2.85-1.2
		c-1.16,0-2.14,0.4-2.94,1.2c-0.81,0.8-1.21,1.75-1.21,2.84v31.69c0,1.09,0.4,2.04,1.21,2.84c0.8,0.8,1.79,1.2,2.94,1.2
		c1.09,0,2.04-0.4,2.85-1.2C139.98,59.88,140.38,58.94,140.38,57.84z"/>
	<path class="st1" d="M168.87,23.08c-0.95-0.84-2.13-1.16-3.53-0.97c-1.27,0.19-2.51,1.03-3.72,2.51v44.9h-8.3V14.29h8.3v2.99
		c1.84-2.32,4.26-3.48,7.24-3.48V23.08z"/>
	<path class="st1" d="M181.8,69.52h-8.3V0.48h8.3V69.52z"/>
	<path class="st1" d="M212.12,69.52h-8.3v-2.99c-1.79,2.32-4.19,3.48-7.2,3.48c-2.11,0-3.87-0.48-5.28-1.45
		c-1.41-0.97-2.4-2.04-2.98-3.23c-0.58-1.19-0.86-3.23-0.86-6.13v-44.9h8.3v43.93c0,1.03,0.35,1.87,1.04,2.51
		c0.88,0.84,2.01,1.16,3.39,0.97c1.26-0.19,2.45-1.03,3.58-2.51v-44.9h8.3V69.52z"/>
</g>
</svg>
